<mxfile host="65bd71144e">
    <diagram id="Lkra5sjvyhQqC_2qbyV4" name="第 1 页">
        <mxGraphModel dx="571" dy="392" grid="1" gridSize="10" guides="1" tooltips="1" connect="1" arrows="1" fold="1" page="1" pageScale="1" pageWidth="1200" pageHeight="1920" background="#FFFFFF" math="0" shadow="0">
            <root>
                <mxCell id="0"/>
                <mxCell id="1" parent="0"/>
                <mxCell id="83" value="尝试是否可以用ajax,url那种去" style="whiteSpace=wrap;html=1;" vertex="1" parent="1">
                    <mxGeometry x="210" y="370" width="120" height="60" as="geometry"/>
                </mxCell>
                <mxCell id="84" value="尝试是否可以用ajax,url那种去" style="whiteSpace=wrap;html=1;" vertex="1" parent="1">
                    <mxGeometry x="610" y="590" width="120" height="60" as="geometry"/>
                </mxCell>
            </root>
        </mxGraphModel>
    </diagram>
</mxfile>